<?xml version="1.0" encoding="utf-8"?>
<!-- Generator: Adobe Illustrator 22.0.1, SVG Export Plug-In . SVG Version: 6.00 Build 0)  -->
<svg version="1.1" id="Capa_1" xmlns="http://www.w3.org/2000/svg" xmlns:xlink="http://www.w3.org/1999/xlink" x="0px" y="0px"
	 viewBox="0 0 95.8 95.8" style="enable-background:new 0 0 95.8 95.8;" xml:space="preserve">
<style type="text/css">
	.st0{fill:#FFFFFF;}
</style>
<g>
	<g>
		<path class="st0" d="M38.7,44.7c0,0,9.1-0.7,9.1-11.3c0-10.6-7.4-15.8-16.8-15.8H13.6h-0.5H0V77h13.1h0.5h17.3
			c0,0,18.9,0.6,18.9-17.5C49.8,59.4,50.6,44.7,38.7,44.7z M13.6,28.1h15.1h2.2c0,0,4.2,0,4.2,6.2s-2.5,7.1-5.3,7.1H13.6V28.1z
			 M30.1,66.4H13.6V50.5h17.3c0,0,6.3-0.1,6.3,8.2C37.2,65.6,32.6,66.4,30.1,66.4z"/>
		<rect x="62.2" y="21.1" class="st0" width="24.5" height="7.3"/>
		<path class="st0" d="M75,32.7c-22.8,0-22.8,22.8-22.8,22.8S50.6,78.2,75,78.2c0,0,20.3,1.2,20.3-15.8H84.8c0,0,0.3,6.4-9.5,6.4
			c0,0-10.5,0.7-10.5-10.3h30.8C95.6,58.5,99,32.7,75,32.7z M84.3,50.5H64.7c0,0,1.3-9.2,10.5-9.2C84.4,41.4,84.3,50.5,84.3,50.5z"
			/>
	</g>
</g>
</svg>
